<mxfile host="app.diagrams.net" agent="Mozilla/5.0 (Windows NT 10.0; Win64; x64) AppleWebKit/537.36 (KHTML, like Gecko) Chrome/128.0.0.0 Safari/537.36" version="24.7.14">
  <diagram name="Сторінка-1" id="z3Py-9YjwIzKQpHe0xzm">
    <mxGraphModel dx="1444" dy="896" grid="1" gridSize="10" guides="1" tooltips="1" connect="1" arrows="1" fold="1" page="1" pageScale="1" pageWidth="690" pageHeight="980" math="0" shadow="0">
      <root>
        <mxCell id="0" />
        <mxCell id="1" parent="0" />
        <mxCell id="0-jJFjLt8N0j9Du-8xyQ-4" style="edgeStyle=orthogonalEdgeStyle;rounded=0;orthogonalLoop=1;jettySize=auto;html=1;exitX=0.5;exitY=1;exitDx=0;exitDy=0;entryX=0.5;entryY=0;entryDx=0;entryDy=0;" edge="1" parent="1" source="0-jJFjLt8N0j9Du-8xyQ-1" target="0-jJFjLt8N0j9Du-8xyQ-2">
          <mxGeometry relative="1" as="geometry" />
        </mxCell>
        <mxCell id="0-jJFjLt8N0j9Du-8xyQ-1" value="" style="ellipse;whiteSpace=wrap;html=1;aspect=fixed;fillColor=#080808;" vertex="1" parent="1">
          <mxGeometry x="305" y="10" width="80" height="80" as="geometry" />
        </mxCell>
        <mxCell id="0-jJFjLt8N0j9Du-8xyQ-5" style="edgeStyle=orthogonalEdgeStyle;rounded=0;orthogonalLoop=1;jettySize=auto;html=1;" edge="1" parent="1" source="0-jJFjLt8N0j9Du-8xyQ-2" target="0-jJFjLt8N0j9Du-8xyQ-3">
          <mxGeometry relative="1" as="geometry" />
        </mxCell>
        <mxCell id="0-jJFjLt8N0j9Du-8xyQ-2" value="&lt;font style=&quot;font-size: 22px;&quot;&gt;ввід x&lt;/font&gt;" style="rounded=1;whiteSpace=wrap;html=1;arcSize=50;" vertex="1" parent="1">
          <mxGeometry x="285" y="132" width="120" height="60" as="geometry" />
        </mxCell>
        <mxCell id="0-jJFjLt8N0j9Du-8xyQ-23" style="edgeStyle=orthogonalEdgeStyle;rounded=0;orthogonalLoop=1;jettySize=auto;html=1;exitX=0.5;exitY=1;exitDx=0;exitDy=0;entryX=0.5;entryY=0;entryDx=0;entryDy=0;fontFamily=Helvetica;fontSize=12;fontColor=default;" edge="1" parent="1" source="0-jJFjLt8N0j9Du-8xyQ-3" target="0-jJFjLt8N0j9Du-8xyQ-7">
          <mxGeometry relative="1" as="geometry" />
        </mxCell>
        <mxCell id="0-jJFjLt8N0j9Du-8xyQ-3" value="&lt;font style=&quot;font-size: 19px;&quot;&gt;A = fabs(4 * x - 1)&lt;/font&gt;" style="rounded=1;whiteSpace=wrap;html=1;arcSize=50;" vertex="1" parent="1">
          <mxGeometry x="250" y="240" width="190" height="60" as="geometry" />
        </mxCell>
        <mxCell id="0-jJFjLt8N0j9Du-8xyQ-25" style="edgeStyle=orthogonalEdgeStyle;rounded=0;orthogonalLoop=1;jettySize=auto;html=1;exitX=0.5;exitY=1;exitDx=0;exitDy=0;entryX=0.5;entryY=0;entryDx=0;entryDy=0;fontFamily=Helvetica;fontSize=12;fontColor=default;" edge="1" parent="1" source="0-jJFjLt8N0j9Du-8xyQ-7" target="0-jJFjLt8N0j9Du-8xyQ-11">
          <mxGeometry relative="1" as="geometry" />
        </mxCell>
        <mxCell id="0-jJFjLt8N0j9Du-8xyQ-32" style="edgeStyle=orthogonalEdgeStyle;rounded=0;orthogonalLoop=1;jettySize=auto;html=1;exitX=1;exitY=0.5;exitDx=0;exitDy=0;fontFamily=Helvetica;fontSize=12;fontColor=default;" edge="1" parent="1" source="0-jJFjLt8N0j9Du-8xyQ-7" target="0-jJFjLt8N0j9Du-8xyQ-20">
          <mxGeometry relative="1" as="geometry" />
        </mxCell>
        <mxCell id="0-jJFjLt8N0j9Du-8xyQ-7" value="" style="rhombus;whiteSpace=wrap;html=1;rounded=1;strokeColor=default;align=center;verticalAlign=middle;arcSize=0;fontFamily=Helvetica;fontSize=12;fontColor=default;fillColor=default;" vertex="1" parent="1">
          <mxGeometry x="324" y="350" width="45" height="40" as="geometry" />
        </mxCell>
        <mxCell id="0-jJFjLt8N0j9Du-8xyQ-28" style="edgeStyle=orthogonalEdgeStyle;rounded=0;orthogonalLoop=1;jettySize=auto;html=1;exitX=0.5;exitY=1;exitDx=0;exitDy=0;entryX=0.5;entryY=0;entryDx=0;entryDy=0;fontFamily=Helvetica;fontSize=12;fontColor=default;" edge="1" parent="1" source="0-jJFjLt8N0j9Du-8xyQ-10" target="0-jJFjLt8N0j9Du-8xyQ-13">
          <mxGeometry relative="1" as="geometry" />
        </mxCell>
        <mxCell id="0-jJFjLt8N0j9Du-8xyQ-34" style="edgeStyle=orthogonalEdgeStyle;rounded=0;orthogonalLoop=1;jettySize=auto;html=1;entryX=0;entryY=0.5;entryDx=0;entryDy=0;fontFamily=Helvetica;fontSize=12;fontColor=default;" edge="1" parent="1" source="0-jJFjLt8N0j9Du-8xyQ-10" target="0-jJFjLt8N0j9Du-8xyQ-21">
          <mxGeometry relative="1" as="geometry" />
        </mxCell>
        <mxCell id="0-jJFjLt8N0j9Du-8xyQ-10" value="" style="rhombus;whiteSpace=wrap;html=1;rounded=1;strokeColor=default;align=center;verticalAlign=middle;arcSize=0;fontFamily=Helvetica;fontSize=12;fontColor=default;fillColor=default;" vertex="1" parent="1">
          <mxGeometry x="325" y="630" width="45" height="40" as="geometry" />
        </mxCell>
        <mxCell id="0-jJFjLt8N0j9Du-8xyQ-26" style="edgeStyle=orthogonalEdgeStyle;rounded=0;orthogonalLoop=1;jettySize=auto;html=1;entryX=0.5;entryY=0;entryDx=0;entryDy=0;fontFamily=Helvetica;fontSize=12;fontColor=default;" edge="1" parent="1" source="0-jJFjLt8N0j9Du-8xyQ-11" target="0-jJFjLt8N0j9Du-8xyQ-10">
          <mxGeometry relative="1" as="geometry" />
        </mxCell>
        <mxCell id="0-jJFjLt8N0j9Du-8xyQ-11" value="" style="rhombus;whiteSpace=wrap;html=1;rounded=1;strokeColor=default;align=center;verticalAlign=middle;arcSize=0;fontFamily=Helvetica;fontSize=12;fontColor=default;fillColor=default;" vertex="1" parent="1">
          <mxGeometry x="324" y="480" width="45" height="40" as="geometry" />
        </mxCell>
        <mxCell id="0-jJFjLt8N0j9Du-8xyQ-31" style="edgeStyle=orthogonalEdgeStyle;rounded=0;orthogonalLoop=1;jettySize=auto;html=1;entryX=0.5;entryY=0;entryDx=0;entryDy=0;fontFamily=Helvetica;fontSize=12;fontColor=default;" edge="1" parent="1" source="0-jJFjLt8N0j9Du-8xyQ-12" target="0-jJFjLt8N0j9Du-8xyQ-14">
          <mxGeometry relative="1" as="geometry" />
        </mxCell>
        <mxCell id="0-jJFjLt8N0j9Du-8xyQ-36" style="edgeStyle=orthogonalEdgeStyle;rounded=0;orthogonalLoop=1;jettySize=auto;html=1;exitX=1;exitY=0.5;exitDx=0;exitDy=0;fontFamily=Helvetica;fontSize=12;fontColor=default;" edge="1" parent="1" source="0-jJFjLt8N0j9Du-8xyQ-12" target="0-jJFjLt8N0j9Du-8xyQ-22">
          <mxGeometry relative="1" as="geometry" />
        </mxCell>
        <mxCell id="0-jJFjLt8N0j9Du-8xyQ-12" value="" style="rhombus;whiteSpace=wrap;html=1;rounded=1;strokeColor=default;align=center;verticalAlign=middle;arcSize=0;fontFamily=Helvetica;fontSize=12;fontColor=default;fillColor=default;" vertex="1" parent="1">
          <mxGeometry x="327" y="888" width="45" height="40" as="geometry" />
        </mxCell>
        <mxCell id="0-jJFjLt8N0j9Du-8xyQ-29" style="edgeStyle=orthogonalEdgeStyle;rounded=0;orthogonalLoop=1;jettySize=auto;html=1;exitX=0.5;exitY=1;exitDx=0;exitDy=0;entryX=0.5;entryY=0;entryDx=0;entryDy=0;fontFamily=Helvetica;fontSize=12;fontColor=default;" edge="1" parent="1" source="0-jJFjLt8N0j9Du-8xyQ-13" target="0-jJFjLt8N0j9Du-8xyQ-12">
          <mxGeometry relative="1" as="geometry" />
        </mxCell>
        <mxCell id="0-jJFjLt8N0j9Du-8xyQ-13" value="" style="rhombus;whiteSpace=wrap;html=1;rounded=1;strokeColor=default;align=center;verticalAlign=middle;arcSize=0;fontFamily=Helvetica;fontSize=12;fontColor=default;fillColor=default;" vertex="1" parent="1">
          <mxGeometry x="326" y="776" width="45" height="40" as="geometry" />
        </mxCell>
        <mxCell id="0-jJFjLt8N0j9Du-8xyQ-39" style="edgeStyle=orthogonalEdgeStyle;rounded=0;orthogonalLoop=1;jettySize=auto;html=1;exitX=0.5;exitY=1;exitDx=0;exitDy=0;entryX=0.5;entryY=0;entryDx=0;entryDy=0;fontFamily=Helvetica;fontSize=12;fontColor=default;" edge="1" parent="1" source="0-jJFjLt8N0j9Du-8xyQ-14" target="0-jJFjLt8N0j9Du-8xyQ-38">
          <mxGeometry relative="1" as="geometry" />
        </mxCell>
        <mxCell id="0-jJFjLt8N0j9Du-8xyQ-14" value="" style="rhombus;whiteSpace=wrap;html=1;rounded=1;strokeColor=default;align=center;verticalAlign=middle;arcSize=0;fontFamily=Helvetica;fontSize=12;fontColor=default;fillColor=default;" vertex="1" parent="1">
          <mxGeometry x="327" y="1010" width="45" height="40" as="geometry" />
        </mxCell>
        <mxCell id="0-jJFjLt8N0j9Du-8xyQ-33" style="edgeStyle=orthogonalEdgeStyle;rounded=0;orthogonalLoop=1;jettySize=auto;html=1;entryX=1;entryY=0.5;entryDx=0;entryDy=0;fontFamily=Helvetica;fontSize=12;fontColor=default;" edge="1" parent="1" source="0-jJFjLt8N0j9Du-8xyQ-20" target="0-jJFjLt8N0j9Du-8xyQ-11">
          <mxGeometry relative="1" as="geometry">
            <Array as="points">
              <mxPoint x="630" y="500" />
            </Array>
          </mxGeometry>
        </mxCell>
        <mxCell id="0-jJFjLt8N0j9Du-8xyQ-20" value="&lt;font style=&quot;font-size: 19px;&quot;&gt;B = x * x * x * x * x * x * x - 2 * x&lt;/font&gt;" style="rounded=1;whiteSpace=wrap;html=1;strokeColor=default;align=center;verticalAlign=middle;arcSize=50;fontFamily=Helvetica;fontSize=12;fontColor=default;fillColor=default;" vertex="1" parent="1">
          <mxGeometry x="550" y="340" width="160" height="60" as="geometry" />
        </mxCell>
        <mxCell id="0-jJFjLt8N0j9Du-8xyQ-35" style="edgeStyle=orthogonalEdgeStyle;rounded=0;orthogonalLoop=1;jettySize=auto;html=1;entryX=1;entryY=0.5;entryDx=0;entryDy=0;fontFamily=Helvetica;fontSize=12;fontColor=default;" edge="1" parent="1" source="0-jJFjLt8N0j9Du-8xyQ-21" target="0-jJFjLt8N0j9Du-8xyQ-13">
          <mxGeometry relative="1" as="geometry">
            <Array as="points">
              <mxPoint x="629" y="796" />
            </Array>
          </mxGeometry>
        </mxCell>
        <mxCell id="0-jJFjLt8N0j9Du-8xyQ-21" value="&lt;font style=&quot;font-size: 18px;&quot;&gt;&amp;nbsp;B = atan((exp(x) + 1) / 8)&lt;/font&gt;" style="rounded=1;whiteSpace=wrap;html=1;strokeColor=default;align=center;verticalAlign=middle;arcSize=50;fontFamily=Helvetica;fontSize=12;fontColor=default;fillColor=default;" vertex="1" parent="1">
          <mxGeometry x="549" y="620" width="160" height="60" as="geometry" />
        </mxCell>
        <mxCell id="0-jJFjLt8N0j9Du-8xyQ-37" style="edgeStyle=orthogonalEdgeStyle;rounded=0;orthogonalLoop=1;jettySize=auto;html=1;entryX=1;entryY=0.5;entryDx=0;entryDy=0;fontFamily=Helvetica;fontSize=12;fontColor=default;" edge="1" parent="1" source="0-jJFjLt8N0j9Du-8xyQ-22" target="0-jJFjLt8N0j9Du-8xyQ-14">
          <mxGeometry relative="1" as="geometry">
            <Array as="points">
              <mxPoint x="630" y="1030" />
            </Array>
          </mxGeometry>
        </mxCell>
        <mxCell id="0-jJFjLt8N0j9Du-8xyQ-22" value="&lt;font style=&quot;font-size: 18px;&quot;&gt;B = (x * x * x * x) + exp(x * x + 3)&lt;/font&gt;" style="rounded=1;whiteSpace=wrap;html=1;strokeColor=default;align=center;verticalAlign=middle;arcSize=50;fontFamily=Helvetica;fontSize=12;fontColor=default;fillColor=default;" vertex="1" parent="1">
          <mxGeometry x="551" y="878" width="160" height="60" as="geometry" />
        </mxCell>
        <mxCell id="0-jJFjLt8N0j9Du-8xyQ-41" style="edgeStyle=orthogonalEdgeStyle;rounded=0;orthogonalLoop=1;jettySize=auto;html=1;exitX=0.5;exitY=1;exitDx=0;exitDy=0;entryX=0.5;entryY=0;entryDx=0;entryDy=0;fontFamily=Helvetica;fontSize=12;fontColor=default;" edge="1" parent="1" source="0-jJFjLt8N0j9Du-8xyQ-38" target="0-jJFjLt8N0j9Du-8xyQ-40">
          <mxGeometry relative="1" as="geometry" />
        </mxCell>
        <mxCell id="0-jJFjLt8N0j9Du-8xyQ-38" value="&lt;font style=&quot;font-size: 23px;&quot;&gt;y = A + B&lt;/font&gt;" style="rounded=1;whiteSpace=wrap;html=1;strokeColor=default;align=center;verticalAlign=middle;arcSize=50;fontFamily=Helvetica;fontSize=12;fontColor=default;fillColor=default;" vertex="1" parent="1">
          <mxGeometry x="289.5" y="1130" width="120" height="60" as="geometry" />
        </mxCell>
        <mxCell id="0-jJFjLt8N0j9Du-8xyQ-44" style="edgeStyle=orthogonalEdgeStyle;rounded=0;orthogonalLoop=1;jettySize=auto;html=1;entryX=0.5;entryY=0;entryDx=0;entryDy=0;fontFamily=Helvetica;fontSize=12;fontColor=default;" edge="1" parent="1" source="0-jJFjLt8N0j9Du-8xyQ-40" target="0-jJFjLt8N0j9Du-8xyQ-42">
          <mxGeometry relative="1" as="geometry" />
        </mxCell>
        <mxCell id="0-jJFjLt8N0j9Du-8xyQ-40" value="&lt;span style=&quot;font-size: 22px;&quot;&gt;вивід y&lt;/span&gt;" style="rounded=1;whiteSpace=wrap;html=1;arcSize=50;" vertex="1" parent="1">
          <mxGeometry x="273.5" y="1250" width="150" height="60" as="geometry" />
        </mxCell>
        <mxCell id="0-jJFjLt8N0j9Du-8xyQ-45" style="edgeStyle=orthogonalEdgeStyle;rounded=0;orthogonalLoop=1;jettySize=auto;html=1;entryX=0.5;entryY=0;entryDx=0;entryDy=0;fontFamily=Helvetica;fontSize=12;fontColor=default;" edge="1" parent="1" source="0-jJFjLt8N0j9Du-8xyQ-42" target="0-jJFjLt8N0j9Du-8xyQ-43">
          <mxGeometry relative="1" as="geometry" />
        </mxCell>
        <mxCell id="0-jJFjLt8N0j9Du-8xyQ-60" style="edgeStyle=orthogonalEdgeStyle;rounded=0;orthogonalLoop=1;jettySize=auto;html=1;fontFamily=Helvetica;fontSize=12;fontColor=default;" edge="1" parent="1" source="0-jJFjLt8N0j9Du-8xyQ-42" target="0-jJFjLt8N0j9Du-8xyQ-58">
          <mxGeometry relative="1" as="geometry" />
        </mxCell>
        <mxCell id="0-jJFjLt8N0j9Du-8xyQ-42" value="" style="rhombus;whiteSpace=wrap;html=1;rounded=1;strokeColor=default;align=center;verticalAlign=middle;arcSize=0;fontFamily=Helvetica;fontSize=12;fontColor=default;fillColor=default;" vertex="1" parent="1">
          <mxGeometry x="326" y="1377" width="45" height="40" as="geometry" />
        </mxCell>
        <mxCell id="0-jJFjLt8N0j9Du-8xyQ-47" style="edgeStyle=orthogonalEdgeStyle;rounded=0;orthogonalLoop=1;jettySize=auto;html=1;entryX=0.5;entryY=0;entryDx=0;entryDy=0;fontFamily=Helvetica;fontSize=12;fontColor=default;" edge="1" parent="1" source="0-jJFjLt8N0j9Du-8xyQ-43" target="0-jJFjLt8N0j9Du-8xyQ-46">
          <mxGeometry relative="1" as="geometry" />
        </mxCell>
        <mxCell id="0-jJFjLt8N0j9Du-8xyQ-61" style="edgeStyle=orthogonalEdgeStyle;rounded=0;orthogonalLoop=1;jettySize=auto;html=1;entryX=0;entryY=0.5;entryDx=0;entryDy=0;fontFamily=Helvetica;fontSize=12;fontColor=default;" edge="1" parent="1" source="0-jJFjLt8N0j9Du-8xyQ-43" target="0-jJFjLt8N0j9Du-8xyQ-59">
          <mxGeometry relative="1" as="geometry" />
        </mxCell>
        <mxCell id="0-jJFjLt8N0j9Du-8xyQ-43" value="" style="rhombus;whiteSpace=wrap;html=1;rounded=1;strokeColor=default;align=center;verticalAlign=middle;arcSize=0;fontFamily=Helvetica;fontSize=12;fontColor=default;fillColor=default;" vertex="1" parent="1">
          <mxGeometry x="327" y="1490" width="45" height="40" as="geometry" />
        </mxCell>
        <mxCell id="0-jJFjLt8N0j9Du-8xyQ-51" style="edgeStyle=orthogonalEdgeStyle;rounded=0;orthogonalLoop=1;jettySize=auto;html=1;entryX=0.5;entryY=0;entryDx=0;entryDy=0;fontFamily=Helvetica;fontSize=12;fontColor=default;" edge="1" parent="1" source="0-jJFjLt8N0j9Du-8xyQ-46" target="0-jJFjLt8N0j9Du-8xyQ-48">
          <mxGeometry relative="1" as="geometry" />
        </mxCell>
        <mxCell id="0-jJFjLt8N0j9Du-8xyQ-46" value="&lt;font style=&quot;font-size: 18px;&quot;&gt;&amp;nbsp;B = atan((exp(x) + 1) / 8)&lt;/font&gt;" style="rounded=1;whiteSpace=wrap;html=1;strokeColor=default;align=center;verticalAlign=middle;arcSize=50;fontFamily=Helvetica;fontSize=12;fontColor=default;fillColor=default;" vertex="1" parent="1">
          <mxGeometry x="270" y="1600" width="160" height="60" as="geometry" />
        </mxCell>
        <mxCell id="0-jJFjLt8N0j9Du-8xyQ-52" style="edgeStyle=orthogonalEdgeStyle;rounded=0;orthogonalLoop=1;jettySize=auto;html=1;entryX=0.5;entryY=0;entryDx=0;entryDy=0;fontFamily=Helvetica;fontSize=12;fontColor=default;" edge="1" parent="1" source="0-jJFjLt8N0j9Du-8xyQ-48" target="0-jJFjLt8N0j9Du-8xyQ-50">
          <mxGeometry relative="1" as="geometry" />
        </mxCell>
        <mxCell id="0-jJFjLt8N0j9Du-8xyQ-48" value="" style="rhombus;whiteSpace=wrap;html=1;rounded=1;strokeColor=default;align=center;verticalAlign=middle;arcSize=0;fontFamily=Helvetica;fontSize=12;fontColor=default;fillColor=default;" vertex="1" parent="1">
          <mxGeometry x="327" y="1719" width="45" height="40" as="geometry" />
        </mxCell>
        <mxCell id="0-jJFjLt8N0j9Du-8xyQ-64" style="edgeStyle=orthogonalEdgeStyle;rounded=0;orthogonalLoop=1;jettySize=auto;html=1;entryX=1;entryY=0.5;entryDx=0;entryDy=0;fontFamily=Helvetica;fontSize=12;fontColor=default;" edge="1" parent="1" source="0-jJFjLt8N0j9Du-8xyQ-49" target="0-jJFjLt8N0j9Du-8xyQ-48">
          <mxGeometry relative="1" as="geometry" />
        </mxCell>
        <mxCell id="0-jJFjLt8N0j9Du-8xyQ-49" value="" style="rhombus;whiteSpace=wrap;html=1;rounded=1;strokeColor=default;align=center;verticalAlign=middle;arcSize=0;fontFamily=Helvetica;fontSize=12;fontColor=default;fillColor=default;" vertex="1" parent="1">
          <mxGeometry x="667.5" y="1719" width="45" height="40" as="geometry" />
        </mxCell>
        <mxCell id="0-jJFjLt8N0j9Du-8xyQ-54" style="edgeStyle=orthogonalEdgeStyle;rounded=0;orthogonalLoop=1;jettySize=auto;html=1;entryX=0.5;entryY=0;entryDx=0;entryDy=0;fontFamily=Helvetica;fontSize=12;fontColor=default;" edge="1" parent="1" source="0-jJFjLt8N0j9Du-8xyQ-50" target="0-jJFjLt8N0j9Du-8xyQ-53">
          <mxGeometry relative="1" as="geometry" />
        </mxCell>
        <mxCell id="0-jJFjLt8N0j9Du-8xyQ-50" value="&lt;font style=&quot;font-size: 23px;&quot;&gt;y = A + B&lt;/font&gt;" style="rounded=1;whiteSpace=wrap;html=1;strokeColor=default;align=center;verticalAlign=middle;arcSize=50;fontFamily=Helvetica;fontSize=12;fontColor=default;fillColor=default;" vertex="1" parent="1">
          <mxGeometry x="290" y="1850" width="120" height="60" as="geometry" />
        </mxCell>
        <mxCell id="0-jJFjLt8N0j9Du-8xyQ-55" style="edgeStyle=orthogonalEdgeStyle;rounded=0;orthogonalLoop=1;jettySize=auto;html=1;exitX=0.5;exitY=1;exitDx=0;exitDy=0;fontFamily=Helvetica;fontSize=12;fontColor=default;" edge="1" parent="1" source="0-jJFjLt8N0j9Du-8xyQ-53" target="0-jJFjLt8N0j9Du-8xyQ-56">
          <mxGeometry relative="1" as="geometry">
            <mxPoint x="350.5454545454545" y="2120" as="targetPoint" />
          </mxGeometry>
        </mxCell>
        <mxCell id="0-jJFjLt8N0j9Du-8xyQ-53" value="&lt;span style=&quot;font-size: 22px;&quot;&gt;вивід y&lt;/span&gt;" style="rounded=1;whiteSpace=wrap;html=1;arcSize=50;" vertex="1" parent="1">
          <mxGeometry x="275" y="1980" width="150" height="60" as="geometry" />
        </mxCell>
        <mxCell id="0-jJFjLt8N0j9Du-8xyQ-56" value="" style="ellipse;whiteSpace=wrap;html=1;aspect=fixed;rounded=1;strokeColor=default;align=center;verticalAlign=middle;arcSize=50;fontFamily=Helvetica;fontSize=12;fontColor=default;fillColor=default;" vertex="1" parent="1">
          <mxGeometry x="310.5454545454545" y="2130" width="80" height="80" as="geometry" />
        </mxCell>
        <mxCell id="0-jJFjLt8N0j9Du-8xyQ-57" value="" style="ellipse;whiteSpace=wrap;html=1;aspect=fixed;rounded=1;strokeColor=default;align=center;verticalAlign=middle;arcSize=50;fontFamily=Helvetica;fontSize=12;fontColor=default;fillColor=#000000;strokeWidth=20;" vertex="1" parent="1">
          <mxGeometry x="325.5" y="2145" width="50" height="50" as="geometry" />
        </mxCell>
        <mxCell id="0-jJFjLt8N0j9Du-8xyQ-63" style="edgeStyle=orthogonalEdgeStyle;rounded=0;orthogonalLoop=1;jettySize=auto;html=1;entryX=1;entryY=0.5;entryDx=0;entryDy=0;fontFamily=Helvetica;fontSize=12;fontColor=default;" edge="1" parent="1" source="0-jJFjLt8N0j9Du-8xyQ-58" target="0-jJFjLt8N0j9Du-8xyQ-49">
          <mxGeometry relative="1" as="geometry">
            <Array as="points">
              <mxPoint x="790" y="1397" />
              <mxPoint x="790" y="1739" />
            </Array>
          </mxGeometry>
        </mxCell>
        <mxCell id="0-jJFjLt8N0j9Du-8xyQ-58" value="&lt;font style=&quot;font-size: 19px;&quot;&gt;B = x * x * x * x * x * x * x - 2 * x&lt;/font&gt;" style="rounded=1;whiteSpace=wrap;html=1;strokeColor=default;align=center;verticalAlign=middle;arcSize=50;fontFamily=Helvetica;fontSize=12;fontColor=default;fillColor=default;" vertex="1" parent="1">
          <mxGeometry x="610" y="1367" width="160" height="60" as="geometry" />
        </mxCell>
        <mxCell id="0-jJFjLt8N0j9Du-8xyQ-62" style="edgeStyle=orthogonalEdgeStyle;rounded=0;orthogonalLoop=1;jettySize=auto;html=1;entryX=0.5;entryY=0;entryDx=0;entryDy=0;fontFamily=Helvetica;fontSize=12;fontColor=default;" edge="1" parent="1" source="0-jJFjLt8N0j9Du-8xyQ-59" target="0-jJFjLt8N0j9Du-8xyQ-49">
          <mxGeometry relative="1" as="geometry" />
        </mxCell>
        <mxCell id="0-jJFjLt8N0j9Du-8xyQ-59" value="&lt;font style=&quot;font-size: 18px;&quot;&gt;B = (x * x * x * x) + exp(x * x + 3)&lt;/font&gt;" style="rounded=1;whiteSpace=wrap;html=1;strokeColor=default;align=center;verticalAlign=middle;arcSize=50;fontFamily=Helvetica;fontSize=12;fontColor=default;fillColor=default;" vertex="1" parent="1">
          <mxGeometry x="610" y="1480" width="160" height="60" as="geometry" />
        </mxCell>
        <mxCell id="0-jJFjLt8N0j9Du-8xyQ-67" value="&lt;span style=&quot;text-align: left; text-wrap: wrap; background-color: rgb(255, 255, 255); color: rgb(32, 33, 34); font-family: sans-serif;&quot;&gt;&lt;b&gt;[&lt;/b&gt;&lt;/span&gt;&lt;font style=&quot;text-align: left; background-color: rgb(255, 255, 255);&quot; color=&quot;#202122&quot; face=&quot;sans-serif&quot;&gt;&lt;span style=&quot;text-wrap: wrap;&quot;&gt;&lt;b&gt;x&amp;lt;0&lt;/b&gt;&lt;/span&gt;&lt;/font&gt;&lt;span style=&quot;text-align: left; text-wrap: wrap; background-color: rgb(255, 255, 255); color: rgb(32, 33, 34); font-family: sans-serif;&quot;&gt;&lt;b&gt;]&lt;/b&gt;&lt;/span&gt;" style="text;html=1;align=center;verticalAlign=middle;resizable=0;points=[];autosize=1;strokeColor=none;fillColor=none;fontFamily=Helvetica;fontSize=17;fontColor=default;" vertex="1" parent="1">
          <mxGeometry x="413" y="331" width="60" height="30" as="geometry" />
        </mxCell>
        <mxCell id="0-jJFjLt8N0j9Du-8xyQ-74" value="&lt;span style=&quot;font-size: 17px; background-color: rgb(255, 255, 255); color: rgb(32, 33, 34); font-family: sans-serif;&quot;&gt;&lt;b&gt;[x &amp;gt;= 0 &amp;amp;&amp;amp; x &amp;lt; 3&lt;/b&gt;&lt;/span&gt;&lt;span style=&quot;font-size: 17px; background-color: rgb(255, 255, 255); color: rgb(32, 33, 34); font-family: sans-serif;&quot;&gt;&lt;b&gt;]&lt;/b&gt;&lt;/span&gt;" style="text;whiteSpace=wrap;html=1;fontFamily=Helvetica;fontSize=12;fontColor=default;" vertex="1" parent="1">
          <mxGeometry x="390" y="610" width="150" height="30" as="geometry" />
        </mxCell>
        <mxCell id="0-jJFjLt8N0j9Du-8xyQ-75" value="&lt;span style=&quot;font-size: 17px; background-color: rgb(255, 255, 255); color: rgb(32, 33, 34); font-family: sans-serif;&quot;&gt;&lt;b&gt;[&lt;/b&gt;&lt;/span&gt;&lt;span style=&quot;background-color: rgb(255, 255, 255);&quot;&gt;&lt;font face=&quot;sans-serif&quot; color=&quot;#202122&quot;&gt;&lt;span style=&quot;font-size: 17px;&quot;&gt;&lt;b&gt;&amp;nbsp;x&amp;gt;= 3&lt;/b&gt;&lt;/span&gt;&lt;/font&gt;&lt;b style=&quot;color: rgb(32, 33, 34); font-family: sans-serif; font-size: 17px;&quot;&gt;]&lt;/b&gt;&lt;/span&gt;" style="text;whiteSpace=wrap;html=1;fontFamily=Helvetica;fontSize=12;fontColor=default;" vertex="1" parent="1">
          <mxGeometry x="375.5" y="861" width="150" height="30" as="geometry" />
        </mxCell>
        <mxCell id="0-jJFjLt8N0j9Du-8xyQ-76" value="&lt;span style=&quot;text-align: left; text-wrap: wrap; background-color: rgb(255, 255, 255); color: rgb(32, 33, 34); font-family: sans-serif;&quot;&gt;&lt;b&gt;[&lt;/b&gt;&lt;/span&gt;&lt;font style=&quot;text-align: left; background-color: rgb(255, 255, 255);&quot; color=&quot;#202122&quot; face=&quot;sans-serif&quot;&gt;&lt;span style=&quot;text-wrap: wrap;&quot;&gt;&lt;b&gt;x&amp;lt;0&lt;/b&gt;&lt;/span&gt;&lt;/font&gt;&lt;span style=&quot;text-align: left; text-wrap: wrap; background-color: rgb(255, 255, 255); color: rgb(32, 33, 34); font-family: sans-serif;&quot;&gt;&lt;b&gt;]&lt;/b&gt;&lt;/span&gt;" style="text;html=1;align=center;verticalAlign=middle;resizable=0;points=[];autosize=1;strokeColor=none;fillColor=none;fontFamily=Helvetica;fontSize=17;fontColor=default;" vertex="1" parent="1">
          <mxGeometry x="435" y="1350" width="60" height="30" as="geometry" />
        </mxCell>
        <mxCell id="0-jJFjLt8N0j9Du-8xyQ-77" value="&lt;span style=&quot;forced-color-adjust: none; font-style: normal; font-variant-ligatures: normal; font-variant-caps: normal; font-weight: 400; letter-spacing: normal; orphans: 2; text-align: left; text-indent: 0px; text-transform: none; widows: 2; word-spacing: 0px; -webkit-text-stroke-width: 0px; white-space: normal; text-decoration-thickness: initial; text-decoration-style: initial; text-decoration-color: initial; font-size: 17px; background-color: rgb(255, 255, 255); color: rgb(32, 33, 34); font-family: sans-serif;&quot;&gt;&lt;b style=&quot;forced-color-adjust: none;&quot;&gt;[&lt;/b&gt;&lt;/span&gt;&lt;span style=&quot;forced-color-adjust: none; color: rgb(0, 0, 0); font-family: Helvetica; font-size: 12px; font-style: normal; font-variant-ligatures: normal; font-variant-caps: normal; font-weight: 400; letter-spacing: normal; orphans: 2; text-align: left; text-indent: 0px; text-transform: none; widows: 2; word-spacing: 0px; -webkit-text-stroke-width: 0px; white-space: normal; text-decoration-thickness: initial; text-decoration-style: initial; text-decoration-color: initial; background-color: rgb(255, 255, 255);&quot;&gt;&lt;font color=&quot;#202122&quot; face=&quot;sans-serif&quot; style=&quot;forced-color-adjust: none;&quot;&gt;&lt;span style=&quot;forced-color-adjust: none; font-size: 17px;&quot;&gt;&lt;b style=&quot;forced-color-adjust: none;&quot;&gt;&amp;nbsp;x&amp;gt;= 3&lt;/b&gt;&lt;/span&gt;&lt;/font&gt;&lt;b style=&quot;forced-color-adjust: none; color: rgb(32, 33, 34); font-family: sans-serif; font-size: 17px;&quot;&gt;]&lt;/b&gt;&lt;/span&gt;" style="text;whiteSpace=wrap;html=1;fontFamily=Helvetica;fontSize=12;fontColor=default;" vertex="1" parent="1">
          <mxGeometry x="480" y="1130" width="90" height="40" as="geometry" />
        </mxCell>
        <mxCell id="0-jJFjLt8N0j9Du-8xyQ-82" value="&lt;span style=&quot;forced-color-adjust: none; font-style: normal; font-variant-ligatures: normal; font-variant-caps: normal; font-weight: 400; letter-spacing: normal; orphans: 2; text-align: left; text-indent: 0px; text-transform: none; widows: 2; word-spacing: 0px; -webkit-text-stroke-width: 0px; white-space: normal; text-decoration-thickness: initial; text-decoration-style: initial; text-decoration-color: initial; font-size: 17px; background-color: rgb(255, 255, 255); color: rgb(32, 33, 34); font-family: sans-serif;&quot;&gt;&lt;b style=&quot;forced-color-adjust: none;&quot;&gt;[&lt;/b&gt;&lt;/span&gt;&lt;span style=&quot;forced-color-adjust: none; color: rgb(0, 0, 0); font-family: Helvetica; font-size: 12px; font-style: normal; font-variant-ligatures: normal; font-variant-caps: normal; font-weight: 400; letter-spacing: normal; orphans: 2; text-align: left; text-indent: 0px; text-transform: none; widows: 2; word-spacing: 0px; -webkit-text-stroke-width: 0px; white-space: normal; text-decoration-thickness: initial; text-decoration-style: initial; text-decoration-color: initial; background-color: rgb(255, 255, 255);&quot;&gt;&lt;font color=&quot;#202122&quot; face=&quot;sans-serif&quot; style=&quot;forced-color-adjust: none;&quot;&gt;&lt;span style=&quot;forced-color-adjust: none; font-size: 17px;&quot;&gt;&lt;b style=&quot;forced-color-adjust: none;&quot;&gt;&amp;nbsp;x&amp;gt;= 3&lt;/b&gt;&lt;/span&gt;&lt;/font&gt;&lt;b style=&quot;forced-color-adjust: none; color: rgb(32, 33, 34); font-family: sans-serif; font-size: 17px;&quot;&gt;]&lt;/b&gt;&lt;/span&gt;" style="text;whiteSpace=wrap;html=1;fontFamily=Helvetica;fontSize=12;fontColor=default;" vertex="1" parent="1">
          <mxGeometry x="435.5" y="1470" width="90" height="40" as="geometry" />
        </mxCell>
      </root>
    </mxGraphModel>
  </diagram>
</mxfile>
